<svg width="2177" height="326" viewBox="0 0 2177 326" fill="none" xmlns="http://www.w3.org/2000/svg">
<path d="M290.944 134.788L290.845 134.656C275.396 119.21 256.166 108.858 235.26 104.421H235.161C235.161 104.421 235.096 104.421 235.063 104.388C233.518 104.125 224.248 102.482 213.368 102.055C212.973 102.022 212.579 101.989 212.184 102.022H211.494C207.944 101.923 204.262 101.989 200.647 102.285C200.647 102.35 200.679 102.449 200.679 102.548C199.496 102.679 198.28 102.81 197.096 102.942C196.702 103.008 196.307 103.073 195.913 103.106L194.73 103.303C194.335 103.369 193.941 103.402 193.546 103.468C193.152 103.534 192.757 103.599 192.363 103.665C191.18 103.895 189.996 104.092 188.846 104.355C188.616 104.388 188.386 104.454 188.155 104.487C187.991 104.519 187.827 104.552 187.662 104.618C187.334 104.684 187.038 104.749 186.709 104.815C185.986 104.98 185.263 105.144 184.54 105.341C184.178 105.407 183.849 105.505 183.488 105.604C182.6 105.834 181.68 106.097 180.759 106.36C180.398 106.458 180.003 106.557 179.609 106.689C179.247 106.787 178.853 106.919 178.491 107.05C174.875 108.167 171.325 109.482 167.841 110.961C167.447 111.125 167.019 111.322 166.625 111.487C166.197 111.684 165.803 111.848 165.376 112.045C164.981 112.243 164.554 112.44 164.159 112.637C163.338 112.999 162.549 113.393 161.76 113.787C161.332 114.017 160.938 114.215 160.511 114.412C160.149 114.609 159.755 114.839 159.393 115.036C158.966 115.266 158.538 115.463 158.111 115.693L156.928 116.384C156.533 116.614 156.139 116.811 155.744 117.041C155.383 117.271 154.988 117.501 154.594 117.731C154.232 117.961 153.871 118.191 153.509 118.388C153.213 118.553 152.95 118.75 152.72 118.914C152.424 119.078 152.128 119.243 151.866 119.44C150.814 120.097 149.762 120.787 148.71 121.51C147.658 122.233 146.639 122.989 145.62 123.745C145.324 123.942 145.061 124.14 144.798 124.37C144.502 124.567 144.174 124.83 143.878 125.06C143.582 125.29 143.286 125.52 142.99 125.75C142.037 126.506 141.084 127.262 140.13 128.083C139.802 128.346 139.44 128.642 139.079 128.971C137.928 129.99 136.745 131.008 135.627 132.093C135.331 132.356 135.035 132.652 134.74 132.914C134.477 133.145 134.246 133.407 133.984 133.638C133.655 133.966 133.326 134.295 132.997 134.623C113.472 154.145 101.934 180.042 100.521 207.616V207.912C100.488 208.47 100.455 208.996 100.422 209.522C100.389 210.771 100.356 212.052 100.356 213.367C100.356 213.926 100.422 214.484 100.488 215.043C100.553 215.405 100.619 215.733 100.718 216.095C101.211 218.001 102.197 219.71 103.578 221.09C104.038 221.583 104.597 222.01 105.188 222.405C105.418 222.569 105.681 222.766 105.977 222.898C107.226 223.588 108.64 224.081 110.119 224.212C110.481 224.245 110.842 224.278 111.237 224.278H111.631C112.551 224.278 113.538 224.278 114.524 224.344C115.543 224.377 116.562 224.442 117.482 224.508C117.975 224.541 118.501 224.541 118.994 224.508C147.231 222.635 173.462 210.245 192.889 189.573C193.25 189.179 193.612 188.784 193.974 188.39C194.204 188.127 194.434 187.864 194.664 187.601C195.354 186.845 196.045 186.057 196.702 185.268C196.965 184.972 197.228 184.676 197.458 184.38C198.181 183.493 198.904 182.606 199.628 181.718C199.858 181.39 200.088 181.094 200.318 180.798C200.548 180.502 200.778 180.174 201.008 179.878C202.159 178.366 203.243 176.789 204.295 175.211C204.46 175.014 204.591 174.817 204.723 174.62C205.248 173.798 205.774 173.009 206.268 172.188C206.432 171.925 206.596 171.662 206.761 171.399C206.958 171.07 207.155 170.742 207.352 170.413C208.043 169.328 208.667 168.178 209.292 167.061C209.456 166.765 209.62 166.436 209.818 166.108C210.475 164.892 211.1 163.676 211.691 162.46C212.053 161.737 212.414 161.014 212.743 160.258C213.105 159.469 213.466 158.68 213.828 157.892C213.959 157.596 214.091 157.3 214.222 157.004C214.452 156.413 214.715 155.821 214.946 155.23C215.208 154.539 215.504 153.849 215.767 153.159C215.767 153.159 215.8 153.093 215.8 153.06C216.063 152.403 216.293 151.746 216.523 151.089C216.556 151.023 216.556 150.99 216.589 150.957C216.786 150.431 216.951 149.905 217.148 149.38C217.148 149.314 217.181 149.248 217.214 149.182C217.312 148.887 217.411 148.591 217.477 148.328C217.805 147.375 218.101 146.455 218.397 145.469C218.561 144.91 218.726 144.351 218.89 143.793C219.022 143.3 219.153 142.84 219.285 142.347C219.449 141.788 219.58 141.196 219.745 140.638C219.745 140.572 219.745 140.539 219.778 140.506C219.843 140.21 219.909 139.915 219.975 139.619C220.041 139.389 220.106 139.159 220.139 138.962C220.304 138.337 220.435 137.746 220.567 137.121C220.665 136.595 220.797 136.037 220.895 135.511C221.027 134.886 221.158 134.229 221.29 133.572C221.388 132.914 221.487 132.29 221.618 131.633C221.684 131.271 221.75 130.91 221.783 130.515C221.783 130.351 221.849 130.154 221.881 129.99C221.98 129.431 222.046 128.872 222.111 128.313C222.177 127.788 222.243 127.262 222.309 126.736C222.407 126.046 222.473 125.356 222.539 124.665C222.572 124.6 222.572 124.534 222.572 124.435C227.174 124.994 231.644 125.881 236.016 127.097C273.851 137.647 301.693 172.451 301.693 213.564V213.86C301.627 262.335 263.694 301.576 215.241 303.219C214.781 303.252 214.321 303.285 213.828 303.383H22.4841L3.87891 321.985C5.85118 323.957 8.5795 325.205 11.5708 325.173H215.767C216.556 325.173 217.312 325.107 218.068 324.942C246.206 323.464 272.47 311.534 292.16 291.191C312.376 270.321 323.519 242.814 323.519 213.729V213.433C323.487 183.723 311.916 155.788 290.944 134.788ZM122.873 202.226C125.338 182.54 134.279 164.202 148.414 150.037C162.68 135.807 180.891 126.933 200.581 124.501C195.486 164.727 163.535 197.099 122.873 202.226Z" fill="#72B5F9"/>
<path d="M220.698 89.862C217.97 88.8432 215.044 88.3502 212.02 88.3502H211.757C207.122 88.3502 202.553 88.6131 198.017 89.1061C187.465 51.3118 152.654 23.4754 111.565 23.4754H111.368C87.4377 23.4754 64.9537 32.7761 48.0578 49.7014C31.9838 65.7393 22.7798 86.8384 21.8923 109.416C22.2867 110.534 22.484 111.75 22.484 113.032V303.383L3.87881 321.985C1.90654 320.013 0.690297 317.285 0.690297 314.294V116.844C0.230099 115.628 0 114.346 0 112.999C0 83.2562 11.5707 55.2884 32.6083 34.255C53.646 13.2217 81.6194 1.65332 111.368 1.65332H111.565C141.314 1.65332 169.287 13.2217 190.358 34.2222L190.456 34.3208C205.906 49.7671 216.293 68.9601 220.698 89.862Z" fill="#7C68F1"/>
<path d="M560.09 130.713C587.107 135.57 608.204 145.83 623.381 161.433C638.559 177.066 646.148 195.977 646.148 218.106C646.148 250.587 634.309 275.782 610.632 293.692C586.955 311.601 552.198 320.556 506.361 320.556H411.652C395.563 320.556 387.519 316.913 387.519 309.628C387.519 305.986 388.734 302.889 391.162 300.309C393.59 297.729 396.413 295.695 399.601 294.147C402.788 292.629 405.884 289.897 408.95 285.951C411.986 282.005 413.959 276.996 414.87 270.925C415.78 265.461 416.236 258.783 416.236 250.89V71.5198C416.236 63.6274 415.78 56.9492 414.87 51.4852C413.655 43.8963 410.772 37.977 406.218 33.7273C401.665 29.4775 397.415 26.0777 393.469 23.4671C389.523 20.8869 387.55 17.3353 387.55 12.782C387.519 5.49666 395.563 1.854 411.652 1.854H494.978C530.494 1.854 558.178 7.56083 578.091 18.9138C597.974 30.2971 608.052 47.8122 608.355 71.5198C608.355 86.0904 604.166 98.5362 595.849 108.857C587.501 119.178 575.602 126.463 560.121 130.713H560.09ZM469.024 42.8339V110.223C469.024 114.169 470.997 116.749 474.943 117.964C478.889 119.178 485.264 119.785 494.067 119.785C515.012 119.785 530.342 116.537 540.056 110.011C549.769 103.484 554.626 92.9508 554.626 78.3802C554.626 63.8095 548.919 50.7567 537.566 41.0429C526.183 31.3292 511.218 26.4723 492.701 26.4723C484.201 26.4723 478.13 27.6258 474.488 29.8721C470.845 32.1184 469.024 36.4592 469.024 42.8339ZM505.45 295.999C533.681 295.999 554.383 290.535 567.588 279.607C580.793 268.679 587.41 251.528 587.41 228.154C587.41 203.263 578.971 183.289 562.124 168.293C545.277 153.267 521.812 145.739 491.79 145.739C482.987 145.739 476.977 146.801 473.82 148.926C470.633 151.051 469.024 155.301 469.024 161.676V264.125C469.024 276.267 471.543 284.615 476.522 289.169C481.53 293.722 491.153 295.999 505.45 295.999Z" fill="#7C68F1"/>
<path d="M862.886 199.01C862.583 205.688 858.94 209.027 851.958 209.027L702.609 210.393C704.431 232.856 712.475 251.373 726.742 265.943C741.009 280.514 758.919 287.799 780.471 287.799C805.363 287.799 827.522 278.086 846.95 258.658C851.199 254.408 855.054 253.498 858.576 255.926C862.067 258.355 862.734 262.604 860.61 268.675C855.146 282.942 843.762 295.935 826.46 307.622C809.157 319.308 787.756 325.167 762.258 325.167C729.17 325.167 702.457 314.907 682.119 294.447C661.781 273.957 651.612 247.487 651.612 215.007C651.612 182.527 662.904 154.084 685.519 131.438C708.134 108.793 735.666 97.5312 768.147 97.5312C797.592 97.5312 821.33 106.79 839.421 125.307C857.483 143.823 865.284 168.411 862.856 199.07L862.886 199.01ZM712.627 187.171L803.693 186.716C808.246 186.716 811.039 186.109 812.132 184.894C813.194 183.68 813.559 180.493 813.285 175.332C812.375 159.547 806.971 146.737 797.106 136.872C787.24 127.006 774.248 122.058 758.16 122.058C742.071 122.058 728.867 128.069 718.546 140.029C708.225 152.019 702.761 164.556 702.154 177.609C701.85 181.859 702.306 184.53 703.52 185.562C704.734 186.625 707.77 187.171 712.627 187.171Z" fill="#7C68F1"/>
<path d="M1101.48 191.269L1102.39 259.113C1102.39 268.827 1103.54 276.628 1105.79 282.548C1108.04 288.467 1110.5 292.352 1113.08 294.174C1115.66 295.995 1118.08 298.272 1120.36 301.004C1122.64 303.736 1123.76 306.923 1123.76 310.566C1123.76 317.244 1117.54 320.583 1105.09 320.583H1047.72C1034.97 320.583 1028.6 317.092 1028.6 310.11C1028.6 306.468 1029.75 303.371 1032 300.761C1034.27 298.181 1036.85 295.965 1039.74 294.174C1042.62 292.352 1045.2 288.467 1047.48 282.548C1049.75 276.628 1050.88 268.827 1050.88 259.113V197.643C1050.88 177.002 1046.99 160.458 1039.25 148.012C1031.51 135.566 1019.13 129.495 1002.16 129.799C988.194 130.102 976.052 135.718 965.731 146.646C955.41 157.574 949.339 172.904 947.517 192.635V259.113C947.517 268.827 948.671 276.628 950.917 282.548C953.164 288.467 955.622 292.352 958.202 294.174C960.783 295.995 963.211 298.272 965.488 301.004C967.764 303.736 968.888 306.923 968.888 310.566C968.888 317.244 962.665 320.583 950.219 320.583H892.847C880.098 320.583 873.723 317.092 873.723 310.11C873.723 306.468 874.877 303.371 877.123 300.761C879.4 298.181 881.98 295.965 884.864 294.174C887.747 292.352 890.328 288.467 892.604 282.548C894.881 276.628 896.004 268.827 896.004 259.113V169.868C896.004 155.297 891.299 144.977 881.889 138.905C876.425 134.959 873.693 131.013 873.693 127.067C873.693 124.031 874.604 121.542 876.425 119.539C878.246 117.566 881.889 115.38 887.353 112.952C907.691 103.845 922.717 98.988 932.431 98.3809C938.805 98.3809 941.993 102.327 941.993 110.22L941.537 142.093C950.644 127.522 962.088 116.442 975.93 108.854C989.742 101.265 1004.4 97.4702 1019.85 97.4702C1045.96 97.4702 1066.09 105.514 1080.2 121.603C1094.32 137.691 1101.39 160.913 1101.39 191.269H1101.48Z" fill="#7C68F1"/>
<path d="M1337.34 199.01C1337.04 205.688 1333.4 209.027 1326.41 209.027L1177.07 210.393C1178.89 232.856 1186.93 251.373 1201.2 265.943C1215.46 280.514 1233.37 287.799 1254.93 287.799C1279.82 287.799 1301.98 278.086 1321.41 258.658C1325.66 254.408 1329.51 253.498 1333.03 255.926C1336.52 258.355 1337.19 262.604 1335.07 268.675C1329.6 282.942 1318.22 295.935 1300.92 307.622C1283.61 319.308 1262.21 325.167 1236.71 325.167C1203.63 325.167 1176.91 314.907 1156.58 294.447C1136.24 273.957 1126.07 247.487 1126.07 215.007C1126.07 182.527 1137.36 154.084 1159.97 131.438C1182.59 108.793 1210.12 97.5312 1242.6 97.5312C1272.05 97.5312 1295.79 106.79 1313.88 125.307C1331.94 143.823 1339.74 168.411 1337.31 199.07L1337.34 199.01ZM1187.08 187.171L1278.15 186.716C1282.7 186.716 1285.49 186.109 1286.59 184.894C1287.65 183.68 1288.01 180.493 1287.74 175.332C1286.83 159.547 1281.43 146.737 1271.56 136.872C1261.7 127.006 1248.7 122.058 1232.62 122.058C1216.53 122.058 1203.32 128.069 1193 140.029C1182.68 152.019 1177.22 164.556 1176.61 177.609C1176.31 181.859 1176.76 184.53 1177.98 185.562C1179.19 186.625 1182.23 187.171 1187.08 187.171Z" fill="#7C68F1"/>
<path d="M1682.48 57.4045L1688.86 258.661C1689.16 267.464 1690.83 274.598 1693.87 280.062C1696.9 285.526 1700.09 289.169 1703.43 290.99C1706.77 292.811 1709.86 295.179 1712.75 298.063C1715.63 300.946 1717.09 304.65 1717.09 309.203C1717.09 313.453 1715.42 316.428 1712.08 318.067C1708.74 319.737 1702.97 320.586 1694.78 320.586H1635.13C1619.04 320.586 1611 316.792 1611 309.203C1611 304.953 1612.36 301.311 1615.09 298.275C1617.83 295.24 1620.8 292.811 1623.96 290.99C1627.15 289.169 1630.12 285.465 1632.85 279.849C1635.58 274.234 1636.8 267.191 1636.5 258.661L1632.4 69.2432L1530.86 290.079C1527.82 295.847 1522.97 299.489 1516.29 301.007C1508.4 303.132 1503.08 301.159 1500.35 295.088L1407.01 72.4305L1400.63 264.581C1400.33 272.169 1401.3 278.544 1403.58 283.705C1405.85 288.865 1408.43 292.356 1411.32 294.177C1414.2 295.999 1416.84 298.214 1419.27 300.764C1421.7 303.345 1422.91 306.319 1422.91 309.628C1422.91 313.878 1421.31 316.762 1418.12 318.279C1414.93 319.797 1409.71 320.556 1402.42 320.556H1366.91C1352.94 320.556 1345.96 316.913 1345.96 309.628C1345.96 306.289 1347.33 303.405 1350.06 300.977C1352.79 298.548 1355.77 296.363 1358.92 294.39C1362.11 292.417 1365.15 288.865 1368.03 283.674C1370.92 278.514 1372.49 272.139 1372.83 264.55L1381.48 57.3742C1381.78 50.3924 1380.72 44.4124 1378.29 39.4037C1375.86 34.3951 1373.13 30.9042 1370.1 28.9311C1367.06 26.958 1364.24 24.5295 1361.69 21.6458C1359.11 18.762 1357.8 15.6657 1357.8 12.3266C1357.8 8.38043 1359.23 5.64844 1362.11 4.13066C1365 2.61289 1370.07 1.854 1377.38 1.854H1422C1428.99 1.854 1433.99 5.19311 1437.03 11.8713L1529.01 229.975L1629.21 11.8713C1632.25 5.19311 1637.25 1.854 1644.24 1.854H1686.13C1699.48 1.854 1706.16 5.34488 1706.16 12.3266C1706.16 15.9693 1704.86 19.0959 1702.31 21.6458C1699.73 24.226 1696.9 26.4419 1693.87 28.2633C1690.83 30.0846 1688.1 33.4844 1685.67 38.5234C1683.24 43.5321 1682.18 49.846 1682.48 57.4045Z" fill="#7C68F1"/>
<path d="M1921.99 199.01C1921.69 205.688 1918.04 209.027 1911.06 209.027L1761.71 210.393C1763.53 232.856 1771.58 251.373 1785.84 265.943C1800.11 280.514 1818.02 287.799 1839.57 287.799C1864.47 287.799 1886.62 278.086 1906.05 258.658C1910.3 254.408 1914.16 253.498 1917.68 255.926C1921.17 258.355 1921.84 262.604 1919.71 268.675C1914.25 282.942 1902.87 295.935 1885.56 307.622C1868.26 319.308 1846.86 325.167 1821.36 325.167C1788.27 325.167 1761.56 314.907 1741.22 294.447C1720.88 273.957 1710.71 247.487 1710.71 215.007C1710.71 182.527 1722.01 154.084 1744.62 131.438C1767.24 108.793 1794.77 97.5312 1827.25 97.5312C1856.69 97.5312 1880.43 106.79 1898.52 125.307C1916.59 143.823 1924.39 168.411 1921.96 199.07L1921.99 199.01ZM1771.73 187.171L1862.8 186.716C1867.35 186.716 1870.14 186.109 1871.23 184.894C1872.3 183.68 1872.66 180.493 1872.39 175.332C1871.48 159.547 1866.07 146.737 1856.21 136.872C1846.34 127.006 1833.35 122.058 1817.26 122.058C1801.17 122.058 1787.97 128.069 1777.65 140.029C1767.33 152.019 1761.86 164.556 1761.26 177.609C1760.95 181.859 1761.41 184.53 1762.62 185.562C1763.84 186.625 1766.87 187.171 1771.73 187.171Z" fill="#7C68F1"/>
<path d="M2150.99 11.869L2150.54 74.2495L2150.08 256.382C2150.08 263.971 2151.45 270.133 2154.18 274.838C2156.91 279.544 2160.01 282.427 2163.5 283.49C2166.99 284.552 2170.11 286.009 2172.85 287.831C2175.58 289.652 2176.94 292.08 2176.94 295.116C2176.94 299.973 2172.54 304.83 2163.74 309.687C2144.92 319.704 2129.59 324.713 2117.75 324.713C2105.91 324.713 2100.75 316.365 2100.45 299.669L2099.99 285.554C2081.48 312.267 2055.83 325.471 2023.04 325.168C1995.12 324.864 1972.41 314.999 1954.99 295.571C1937.53 276.144 1928.82 251.556 1928.82 221.807C1928.82 185.684 1940.41 155.936 1963.64 132.562C1986.86 109.189 2013.33 97.5018 2043.08 97.5018C2064.63 97.5018 2083.3 102.966 2099.08 113.894V74.7352C2099.08 66.5392 2097.93 59.861 2095.68 54.7006C2093.41 49.5401 2090.83 46.0493 2087.94 44.2279C2085.06 42.4066 2082.48 40.3424 2080.2 38.0658C2077.92 35.7891 2076.8 33.3 2076.8 30.568C2076.8 27.836 2077.71 25.5593 2079.53 23.738C2081.36 21.9167 2085 19.7918 2090.46 17.3633C2115.35 5.82825 2132.35 0.0607109 2141.46 0.0607109C2147.83 -0.546399 2151.02 3.39981 2151.02 11.8993L2150.99 11.869ZM2043.99 290.532C2059.47 290.532 2072.07 285.22 2081.78 274.596C2091.49 263.971 2097.11 251.222 2098.63 236.348V212.215C2097.41 187.627 2093.47 169.262 2086.79 157.12C2074.65 134.353 2057.19 122.97 2034.43 122.97C2017.12 122.97 2003.46 129.8 1993.45 143.46C1983.43 157.12 1978.42 175.03 1978.42 197.189C1978.42 226.027 1984.95 248.793 1998 265.489C2011.05 282.184 2026.38 290.532 2043.99 290.532Z" fill="#7C68F1"/>
</svg>
